<svg id="visual" viewBox="0 0 960 540" width="960" height="540" xmlns="http://www.w3.org/2000/svg" xmlns:xlink="http://www.w3.org/1999/xlink" version="1.1"><path d="M0 478L60 465L120 471L180 466L240 460L300 479L360 469L420 469L480 474L540 466L600 479L660 462L720 473L780 475L840 461L900 477L960 479L960 541L900 541L840 541L780 541L720 541L660 541L600 541L540 541L480 541L420 541L360 541L300 541L240 541L180 541L120 541L60 541L0 541Z" fill="#d8d8d8"></path><path d="M0 482L60 492L120 485L180 497L240 499L300 490L360 488L420 499L480 493L540 490L600 498L660 490L720 493L780 500L840 492L900 482L960 488L960 541L900 541L840 541L780 541L720 541L660 541L600 541L540 541L480 541L420 541L360 541L300 541L240 541L180 541L120 541L60 541L0 541Z" fill="#ebebeb"></path><path d="M0 509L60 504L120 516L180 508L240 510L300 520L360 508L420 507L480 509L540 518L600 507L660 506L720 515L780 506L840 509L900 517L960 512L960 541L900 541L840 541L780 541L720 541L660 541L600 541L540 541L480 541L420 541L360 541L300 541L240 541L180 541L120 541L60 541L0 541Z" fill="#fffefe"></path></svg>